# xmcd
#
# Track frame offsets:
# 150
# 10785
# 26152
# 39417
# 51945
# 62297
# 73027
# 82447
# 96572
# 109510
# 121102
# 133215
#
# Disc length: 1940 seconds
#
#
# Revision: 0
# Processed by: cddbd v1.5.1PL2 Copyright (c) Steve Scherf et al.
# Submitted via: FreeRIP 2.945 
#
DISCID=a507920c
DTITLE=Loretta Lynn - Hymns
DYEAR=1965
DGENRE=Gospel
TTITLE0=Everybody Wants To Go To Heaven
TTITLE1=The Third Man
TTITLE2=How Great Thou Art
TTITLE3=Where No One Stands Alone
TTITLE4=If I Could Hear My Mother Pray Again
TTITLE5=In The Sweet Bye and Bye
TTITLE6=Old Camp Meetin' Time
TTITLE7=When They Ring Those Golden Bells
TTITLE8=There'll Be Peace In The Valley For Me
TTITLE9=When I Hear My Children Pray
TTITLE10=I'd Rather Have Jesus
TTITLE11=Where I Learned To Pray
EXTD=MCA Records
EXTT0=
EXTT1=
EXTT2=
EXTT3=
EXTT4=
EXTT5=
EXTT6=
EXTT7=
EXTT8=
EXTT9=
EXTT10=
EXTT11=
PLAYORDER=
